<svg width="330" height="92" viewBox="0 0 330 92" fill="none" xmlns="http://www.w3.org/2000/svg">
<path d="M50.7825 66.3922L50.7553 66.4075C50.4833 66.5705 50.1724 66.6572 49.8564 66.6572C49.2344 66.6572 48.6718 66.3397 48.3523 65.808C47.8562 64.9811 48.1263 63.9044 48.9505 63.4086L48.9947 63.3831C49.2683 63.2201 49.5742 63.1369 49.8853 63.1369C50.0314 63.1369 50.1758 63.1555 50.3203 63.1912C50.774 63.3067 51.1546 63.592 51.3942 63.9944C51.887 64.8232 51.6117 65.8999 50.7825 66.3922ZM37.439 78.3322C37.4508 79.2967 36.6759 80.0914 35.7141 80.1051H35.607C35.1448 80.1051 34.708 79.9268 34.3784 79.6006C34.047 79.2746 33.8618 78.8398 33.8567 78.3779V78.3525C33.8584 77.8906 34.0368 77.4541 34.3631 77.1248C34.6894 76.7953 35.1244 76.6119 35.5866 76.6067L35.6597 76.6051H35.6665C36.1321 76.5984 36.5791 76.7765 36.9173 77.1078C37.2469 77.4338 37.4322 77.8685 37.439 78.3322ZM30.1877 78.0994C30.1079 78.4985 29.8903 78.8586 29.5759 79.115C29.1715 79.4428 28.6413 79.5769 28.1212 79.4717C28.1026 79.4682 28.0873 79.4649 28.072 79.4614L28.0449 79.4564C27.6488 79.3765 27.2886 79.1592 27.032 78.845C26.7805 78.5326 26.6411 78.1436 26.6411 77.748C26.6411 77.6307 26.653 77.5102 26.6768 77.3948C26.7566 76.9957 26.9742 76.6374 27.2903 76.3827C27.603 76.1295 27.9989 75.9921 28.4 75.9921C28.5156 75.9921 28.6293 76.0039 28.7433 76.026L28.7772 76.0328C28.7824 76.0345 28.7892 76.0363 28.796 76.0379L28.813 76.0413C29.2717 76.133 29.6678 76.3962 29.9277 76.7868C30.186 77.1756 30.2795 77.641 30.1877 78.0994ZM44.3538 78.5121C44.0971 78.9028 43.7046 79.1693 43.239 79.2661C43.2202 79.2695 43.1999 79.2746 43.1795 79.278L43.1642 79.2814C43.0469 79.3052 42.9297 79.317 42.8107 79.317C42.4131 79.317 42.0238 79.1796 41.7112 78.9282C41.3968 78.6735 41.1793 78.3151 41.0977 77.9195C41.0739 77.8023 41.0621 77.6834 41.0621 77.5646C41.0621 77.1688 41.1997 76.7783 41.4494 76.4676C41.7062 76.1516 42.0647 75.9343 42.4606 75.8528L42.5354 75.8374C42.6509 75.8138 42.7683 75.8018 42.8838 75.8018C43.2814 75.8018 43.6773 75.9377 43.9901 76.189C44.3061 76.442 44.5237 76.8004 44.6052 77.196C44.7005 77.6546 44.6104 78.1215 44.3538 78.5121ZM23.1659 76.2824C22.8837 76.9124 22.2567 77.3183 21.5651 77.3183C21.3187 77.3183 21.079 77.2673 20.8531 77.1673L20.7766 77.1332C20.1495 76.8513 19.7433 76.2264 19.7416 75.5387C19.7416 75.2891 19.7943 75.0478 19.8962 74.8187C20.1784 74.192 20.8054 73.7861 21.4955 73.7861C21.7435 73.7861 21.9832 73.8387 22.2092 73.9389L22.238 73.9525C22.2516 73.9594 22.2669 73.9662 22.2805 73.9712C22.707 74.1614 23.0351 74.5062 23.2015 74.9443C23.3682 75.3808 23.3562 75.8562 23.1659 76.2824ZM50.4732 76.9159L50.3934 76.9481C50.174 77.0415 49.943 77.0891 49.7085 77.0891C49.0049 77.0891 48.3728 76.6713 48.0957 76.0243C48.004 75.807 47.9564 75.5794 47.9564 75.3434C47.9547 74.6386 48.3728 74.0052 49.0202 73.7301L49.0524 73.7165C49.0627 73.7113 49.0729 73.708 49.0916 73.6995C49.3092 73.6061 49.5419 73.5586 49.7799 73.5586C50.4817 73.5586 51.1138 73.973 51.3908 74.6182C51.7698 75.5046 51.3586 76.5354 50.4732 76.9159ZM16.7304 72.937C16.5638 73.1578 16.3531 73.331 16.1033 73.4499C15.8654 73.5654 15.6003 73.6249 15.3369 73.6249C14.9511 73.6249 14.5857 73.5008 14.2782 73.2682L14.2102 73.2155C13.991 73.0475 13.8193 72.8368 13.6987 72.5889C13.5848 72.3528 13.5236 72.0896 13.5236 71.8264C13.5236 71.4393 13.6494 71.0708 13.8856 70.7634C14.0538 70.5444 14.2646 70.3711 14.5126 70.2523C14.7506 70.1368 15.0139 70.0773 15.2774 70.0773C15.6631 70.0773 16.0319 70.203 16.3378 70.4356C16.3599 70.4543 16.382 70.4713 16.4006 70.4831C16.7729 70.7667 17.0108 71.1778 17.0736 71.6413C17.1366 72.1049 17.0141 72.5652 16.7304 72.937ZM57.0191 72.8504L56.9563 72.8997C56.6453 73.1527 56.2545 73.2919 55.8533 73.2919C55.3232 73.2919 54.827 73.056 54.4939 72.6449C54.2407 72.3307 54.1014 71.9386 54.1031 71.5378C54.1031 71.0096 54.3409 70.5155 54.7471 70.1843C54.7641 70.1724 54.7811 70.1589 54.793 70.1486L54.8133 70.1317C55.1243 69.8803 55.5152 69.7411 55.9146 69.7411C56.4465 69.7411 56.941 69.9771 57.2759 70.3897C57.8824 71.1404 57.7669 72.2442 57.0191 72.8504ZM11.7801 67.1208C11.7393 67.5878 11.5201 68.0107 11.1632 68.3095C10.8471 68.5761 10.4478 68.7222 10.0365 68.7222C9.5182 68.7222 9.03049 68.4947 8.69741 68.1024L8.63793 68.031C8.37792 67.7186 8.23348 67.3229 8.23179 66.9153C8.23179 66.3957 8.4595 65.9049 8.85884 65.5704C9.17323 65.3054 9.57259 65.161 9.98213 65.161C10.5021 65.161 10.9916 65.3886 11.3246 65.7844L11.3739 65.8437C11.6747 66.2021 11.8192 66.6554 11.7801 67.1208ZM62.5711 67.8409C62.5558 67.8595 62.5405 67.8748 62.5217 67.8952C62.3535 68.0752 62.153 68.2161 61.927 68.3113C61.7111 68.403 61.4801 68.4505 61.2404 68.4505C60.7969 68.4505 60.3721 68.284 60.0475 67.9801C59.8656 67.812 59.7262 67.6133 59.6294 67.3858C59.5377 67.1683 59.49 66.9357 59.49 66.6979C59.4918 66.2548 59.6584 65.8319 59.9625 65.5076L60.0152 65.4498C60.1851 65.268 60.3857 65.1271 60.61 65.0321C60.8275 64.9403 61.0586 64.8928 61.2964 64.8928C61.74 64.8928 62.1649 65.061 62.4911 65.3632C62.831 65.6807 63.0282 66.1138 63.0451 66.5808C63.0622 67.0495 62.8957 67.4943 62.5711 67.8409ZM7.6183 61.4829C7.49426 61.9346 7.20366 62.3098 6.7975 62.5426C6.2673 62.8448 5.58924 62.8431 5.06245 62.5442C4.79054 62.3897 4.56453 62.1639 4.40648 61.8871C4.40309 61.8819 4.39968 61.8768 4.39798 61.8718L4.37589 61.8344C4.3742 61.8326 4.3742 61.8293 4.3725 61.8276L4.3691 61.8208C4.21786 61.5576 4.13798 61.2604 4.13798 60.9615C4.13628 60.3314 4.47446 59.7457 5.02166 59.4348C5.55186 59.1309 6.22992 59.1343 6.75671 59.4332C7.02692 59.5877 7.25294 59.8135 7.41268 60.0903L7.42967 60.1209C7.43647 60.1345 7.44327 60.1463 7.44837 60.1549C7.68118 60.5607 7.74065 61.0329 7.6183 61.4829ZM67.0591 61.7037L67.0166 61.7749C66.8585 62.0348 66.6326 62.2505 66.3657 62.3965C66.1074 62.5374 65.8152 62.6139 65.5195 62.6139C65.2 62.6139 64.8856 62.5255 64.6103 62.3575C64.3486 62.1978 64.1328 61.9737 63.9867 61.707C63.8456 61.4473 63.7708 61.1552 63.7708 60.8579C63.7725 60.5404 63.8609 60.2262 64.0257 59.9545L64.0427 59.9273C64.0495 59.9155 64.058 59.9019 64.0665 59.8883C64.2262 59.6251 64.4506 59.4094 64.7174 59.2634C64.9757 59.1208 65.2697 59.0442 65.5654 59.0442C65.8832 59.0442 66.1958 59.1326 66.4711 59.2991C66.8705 59.5418 67.1525 59.924 67.2647 60.3791C67.3751 60.8325 67.3038 61.3029 67.0591 61.7037ZM55.8466 61.6867L55.7855 61.758C55.4524 62.1333 54.9749 62.3472 54.4719 62.3472C54.0453 62.3472 53.634 62.1927 53.3146 61.9107C52.9645 61.6018 52.7554 61.1738 52.7265 60.7069C52.6976 60.2398 52.8523 59.7898 53.1615 59.44L53.1701 59.4297C53.182 59.4162 53.1956 59.4009 53.2109 59.384C53.5423 59.0052 54.0215 58.7895 54.5261 58.7895C54.9511 58.7895 55.3623 58.944 55.6818 59.2226C56.404 59.8577 56.4788 60.9615 55.8466 61.6867ZM60.0797 55.2539L60.0186 55.378C59.8725 55.6581 59.6549 55.8941 59.3848 56.0589C59.1077 56.2287 58.7899 56.3188 58.4653 56.3188C58.2002 56.3188 57.9436 56.2593 57.7041 56.1438C57.4032 55.9978 57.1501 55.7703 56.9749 55.485C56.805 55.2082 56.715 54.8889 56.715 54.5645C56.7166 54.2995 56.7761 54.0448 56.8866 53.8122L56.924 53.7392C57.0685 53.437 57.2962 53.1839 57.5817 53.009C57.8587 52.8375 58.1781 52.7458 58.5027 52.7458C58.7662 52.7458 59.0211 52.8053 59.2606 52.9206C59.6805 53.1228 59.9981 53.476 60.1528 53.9175C60.3075 54.3573 60.282 54.8328 60.0797 55.2539ZM3.62817 56.0403C3.44464 56.1031 3.2526 56.1353 3.06058 56.1353C2.31284 56.1353 1.6467 55.6598 1.40368 54.95L1.37819 54.8736C1.31532 54.6918 1.28303 54.5017 1.28303 54.3133C1.28303 53.5626 1.76055 52.8952 2.47089 52.6541C2.65442 52.5913 2.84306 52.5607 3.03508 52.5607C3.78451 52.5607 4.45067 53.0361 4.69198 53.7392L4.71747 53.819C5.03015 54.731 4.54244 55.7278 3.62817 56.0403ZM70.2404 54.7598C70.2336 54.7751 70.2301 54.7903 70.2251 54.8056C70.22 54.8209 70.2132 54.8362 70.2115 54.8447C69.9735 55.5596 69.3057 56.0403 68.5512 56.0403C68.3625 56.0403 68.1756 56.0097 67.9972 55.9502C67.6402 55.8313 67.3377 55.6072 67.122 55.3016C66.9095 55.0027 66.799 54.6511 66.799 54.2877C66.8008 54.0993 66.8314 53.9142 66.8891 53.7374L66.913 53.6645C67.0319 53.3079 67.2562 53.0055 67.5604 52.7882C67.8596 52.5777 68.2113 52.4655 68.5766 52.4655C68.7618 52.4655 68.9471 52.4944 69.1273 52.5539C69.5708 52.7016 69.9293 53.0123 70.14 53.4302C70.3508 53.8479 70.3847 54.3216 70.2404 54.7598ZM71.9108 48.2422C71.9057 48.2575 71.9007 48.2711 71.8972 48.2864C71.8904 48.3017 71.8854 48.317 71.8836 48.3271C71.6441 49.0421 70.9779 49.5226 70.2233 49.5226C70.0348 49.5226 69.8478 49.492 69.6693 49.431C69.3125 49.3121 69.01 49.0879 68.7942 48.7822C68.5818 48.4833 68.4713 48.1335 68.4713 47.7685C68.4713 47.5799 68.5019 47.3948 68.5613 47.2182L68.5851 47.1452C68.7041 46.7903 68.9285 46.4863 69.2325 46.2706C69.5317 46.0584 69.8834 45.9463 70.2471 45.9463C70.4341 45.9463 70.6192 45.9769 70.7994 46.0363C71.243 46.1824 71.6015 46.4931 71.8123 46.9108C72.023 47.3303 72.057 47.8041 71.9108 48.2422ZM62.3892 47.9365L62.3671 48.0385C62.2839 48.429 62.0681 48.7805 61.757 49.0301C61.3543 49.3562 60.8139 49.4887 60.3058 49.385C59.9098 49.3036 59.5495 49.0862 59.2947 48.7704C59.0431 48.4595 58.9055 48.0707 58.9055 47.6733C58.9055 47.5545 58.9174 47.4355 58.9412 47.3202L58.9548 47.2471C59.0364 46.848 59.2538 46.4881 59.57 46.2332C59.8826 45.9802 60.2785 45.8426 60.6796 45.8426C60.7918 45.8426 60.9056 45.8546 61.016 45.8767C61.4749 45.97 61.871 46.2349 62.1293 46.6239C62.3892 47.0128 62.481 47.4797 62.3892 47.9365ZM3.07758 48.4273C2.76999 48.7805 2.34344 48.9911 1.87612 49.0233C1.39179 49.0573 0.919363 48.8892 0.564193 48.5597C0.246409 48.2643 0.0509809 47.8635 0.0118956 47.4305L0.00509813 47.315C0.00339886 47.276 0 47.2335 0 47.1944C0.00169926 46.7529 0.168238 46.3301 0.470727 46.0057C0.774916 45.6796 1.18786 45.4827 1.6331 45.4521C2.11402 45.4216 2.59155 45.5897 2.94501 45.9174C3.2713 46.2214 3.46843 46.6358 3.49901 47.0891V47.0977C3.50072 47.118 3.50242 47.1366 3.50411 47.1587C3.53641 47.6258 3.38346 48.0775 3.07758 48.4273ZM62.9347 40.4577C62.9347 40.9095 62.7597 41.3392 62.4453 41.6686C62.1293 41.9963 61.7043 42.1865 61.2489 42.2035C61.2302 42.2052 61.2098 42.2052 61.1912 42.2052C60.7341 42.2052 60.299 42.0337 59.9692 41.7162C59.6396 41.4003 59.451 40.9758 59.434 40.5308C59.434 40.519 59.434 40.5087 59.4323 40.507L59.4305 40.4459C59.4119 39.9789 59.5768 39.5306 59.8929 39.1876C60.2107 38.8445 60.644 38.6458 61.1096 38.6272C61.135 38.6255 61.1588 38.6255 61.1827 38.6255C61.6363 38.6255 62.063 38.797 62.3926 39.1128C62.7205 39.427 62.911 39.8516 62.9296 40.3118C62.9313 40.3356 62.9313 40.3593 62.9331 40.3796V40.3967C62.9347 40.417 62.9347 40.4374 62.9347 40.4577ZM3.8083 39.9755C3.8083 40.074 3.7998 40.1742 3.78112 40.2811L3.76922 40.3492C3.69785 40.7566 3.48543 41.1286 3.16764 41.3952C2.85155 41.6585 2.45221 41.8027 2.04436 41.8027C1.94919 41.8027 1.84723 41.7926 1.74696 41.7756C1.28643 41.6974 0.883677 41.4427 0.613475 41.0607C0.344973 40.6785 0.239613 40.215 0.317784 39.7582C0.321182 39.7361 0.324581 39.714 0.32798 39.6936C0.32968 39.6851 0.331378 39.6783 0.333077 39.6715C0.402752 39.2639 0.618573 38.8937 0.936356 38.6289C1.32721 38.3045 1.85912 38.1618 2.35873 38.2502C2.76658 38.3215 3.13875 38.5355 3.40385 38.8547C3.66555 39.1705 3.8083 39.568 3.8083 39.9755ZM61.5685 33.3611C61.5685 33.7263 61.4546 34.0794 61.2387 34.3801C61.0212 34.6857 60.7153 34.9082 60.3568 35.0236C60.1818 35.0813 59.9999 35.1102 59.8163 35.1102C59.4493 35.1102 59.0976 34.9964 58.7967 34.7809C58.501 34.5719 58.2835 34.2798 58.1646 33.9351L58.1101 33.7687C57.9861 33.3425 58.0285 32.8907 58.2308 32.4916C58.4416 32.0756 58.8035 31.7649 59.2487 31.6205C59.4255 31.5628 59.609 31.5339 59.7925 31.5339C60.1597 31.5339 60.5114 31.6459 60.8104 31.8599C61.1164 32.0774 61.339 32.383 61.4563 32.7395L61.4953 32.8618C61.5447 33.0248 61.5685 33.1913 61.5685 33.3611ZM5.86115 33.03C5.86115 33.2576 5.81697 33.4799 5.73369 33.6856C5.7252 33.7024 5.7201 33.7195 5.7116 33.7381L5.70481 33.7567C5.57225 34.088 5.34454 34.3647 5.05055 34.5617C4.57643 34.8776 3.96635 34.9439 3.42935 34.7315C2.99431 34.5566 2.65442 34.2238 2.4692 33.7959C2.28566 33.3662 2.28056 32.8907 2.4556 32.4509C2.46409 32.4271 2.4743 32.4034 2.48788 32.3728C2.62214 32.0433 2.84816 31.7665 3.14385 31.573C3.43104 31.3827 3.76583 31.2825 4.10909 31.2825C4.3368 31.2825 4.55773 31.3267 4.76845 31.4116C5.09813 31.5457 5.37513 31.7717 5.56886 32.0654C5.75919 32.3524 5.85945 32.687 5.86115 33.03ZM58.4517 26.8419C58.4517 27.4158 58.1696 27.9541 57.6972 28.2819C57.4032 28.4857 57.06 28.5926 56.7031 28.5943C56.127 28.5926 55.5883 28.3107 55.2621 27.8421L55.2144 27.7725C54.9476 27.3887 54.8491 26.9233 54.9323 26.4632C55.0156 26.003 55.2739 25.6039 55.658 25.3373C55.9537 25.1352 56.2969 25.0282 56.6521 25.0282C57.2282 25.0282 57.7686 25.3101 58.095 25.7839L58.1017 25.7941C58.1101 25.8043 58.1186 25.8178 58.1272 25.8297L58.1391 25.8467C58.343 26.1405 58.4517 26.4853 58.4517 26.8419ZM9.40435 26.7264C9.40606 27.0796 9.30068 27.4209 9.10186 27.713L9.08657 27.7368C9.08147 27.7436 9.07467 27.7521 9.06617 27.7657L9.05768 27.7758C8.7331 28.2582 8.18929 28.5468 7.6064 28.5468C7.25804 28.5468 6.91817 28.4416 6.62757 28.2462C6.24011 27.983 5.97671 27.5856 5.88834 27.1272C5.79998 26.6686 5.89683 26.2033 6.15514 25.8196C6.17043 25.7992 6.18574 25.7754 6.20103 25.7516L6.20442 25.7448C6.53241 25.2659 7.07451 24.9789 7.6557 24.9789C8.00576 24.9789 8.34564 25.0842 8.63793 25.2829C9.11715 25.609 9.40265 26.149 9.40435 26.7264ZM14.1864 21.3007C14.1847 21.8017 13.9689 22.2789 13.595 22.61L13.5372 22.6593C13.2161 22.9445 12.8031 23.1008 12.3766 23.1008C11.8752 23.1008 11.3994 22.8885 11.0663 22.5149C10.7554 22.1651 10.599 21.7151 10.6262 21.2498C10.6551 20.7845 10.859 20.3599 11.1989 20.0543L11.3195 19.949C11.6339 19.6908 12.0265 19.5499 12.4343 19.5499C12.9357 19.5499 13.4132 19.7639 13.7463 20.1392C14.03 20.4618 14.1864 20.8745 14.1864 21.3007ZM53.8923 21.2464C53.894 21.6437 53.758 22.0326 53.5082 22.3451C53.1735 22.7611 52.6755 23.0006 52.142 23.0006C51.7392 23.0006 51.3619 22.8681 51.0526 22.6202C51.0425 22.6117 51.0323 22.6049 51.0237 22.5964L50.9864 22.5675C50.2335 21.9664 50.1095 20.866 50.7077 20.112C51.0425 19.6925 51.5421 19.4514 52.0808 19.4514C52.4802 19.4514 52.8557 19.5822 53.1683 19.8301L53.1922 19.8488C53.2057 19.859 53.2194 19.8709 53.2381 19.8844C53.6527 20.2173 53.8923 20.7131 53.8923 21.2464ZM20.102 17.1317C20.1003 17.4526 20.0136 17.7668 19.8487 18.0385C19.6788 18.3204 19.434 18.5463 19.1383 18.6957L19.0703 18.7314C18.8223 18.857 18.5572 18.9199 18.2803 18.9199C17.9607 18.9199 17.648 18.8333 17.3744 18.6668C17.094 18.5004 16.8663 18.2559 16.7168 17.9604C16.506 17.5443 16.4704 17.0706 16.6165 16.6256C16.761 16.1807 17.0703 15.819 17.4883 15.6084C17.4951 15.605 17.5001 15.6016 17.5069 15.5999L17.5631 15.5711C17.8094 15.4471 18.0745 15.3843 18.3481 15.3843C18.6676 15.3843 18.982 15.4709 19.2556 15.6373C19.5377 15.8054 19.7637 16.0517 19.9133 16.3454C20.039 16.5934 20.102 16.8566 20.102 17.1317ZM48.0261 17.0383C48.0261 17.3202 47.9564 17.6021 47.8221 17.8534C47.518 18.4274 46.9232 18.784 46.274 18.784C45.9903 18.784 45.7064 18.7127 45.4498 18.5768L45.3903 18.5463C44.5356 18.098 44.2059 17.0366 44.6545 16.1841C44.9588 15.6067 45.5535 15.2467 46.206 15.2467C46.4864 15.2467 46.7685 15.3164 47.0183 15.4471L47.0609 15.4692C47.0693 15.4743 47.0795 15.4794 47.0966 15.4896C47.6709 15.7918 48.0277 16.3862 48.0261 17.0383ZM26.8706 14.5522C26.8723 15.3486 26.3318 16.0466 25.5587 16.2469L25.4856 16.2656C25.3411 16.303 25.1916 16.3234 25.0403 16.3234C24.245 16.3234 23.5499 15.7867 23.3478 15.0175C23.2288 14.5641 23.2934 14.0937 23.5296 13.6895C23.7658 13.287 24.1447 13 24.5967 12.8812L24.6801 12.8591C24.8244 12.8217 24.9723 12.8031 25.1201 12.8031C25.9172 12.8031 26.6122 13.3431 26.8128 14.114C26.8502 14.2567 26.8706 14.4044 26.8706 14.5522ZM41.2285 14.5437C41.2285 14.6897 41.2099 14.8375 41.1725 14.9818C40.972 15.7545 40.2753 16.2945 39.4783 16.2945C39.332 16.2945 39.1842 16.2758 39.038 16.2385L38.965 16.2198C38.0304 15.9803 37.4645 15.0243 37.7041 14.0903C37.9029 13.3142 38.5997 12.7742 39.3983 12.7742C39.5428 12.7742 39.6907 12.7929 39.8317 12.8285L39.9133 12.8506C40.6882 13.0493 41.2285 13.7455 41.2285 14.5437ZM34.0488 13.6403V13.6623C34.0453 14.1276 33.8618 14.5624 33.5304 14.8901C33.2008 15.2162 32.7623 15.3945 32.3001 15.3945H32.2065C31.741 15.3911 31.3008 15.206 30.9729 14.8731C30.6448 14.5403 30.4648 14.1005 30.4681 13.6335C30.4698 13.1682 30.6551 12.7317 30.9847 12.404C31.3128 12.0779 31.7478 11.8979 32.2117 11.8945L32.3154 11.8962C32.7793 11.9013 33.2143 12.0847 33.5407 12.4142C33.8668 12.7419 34.0488 13.1767 34.0488 13.6403ZM39.101 51.012C39.0601 51.2089 38.9361 51.3787 38.7628 51.4789C38.7526 51.4875 38.7407 51.4925 38.7288 51.501L38.7049 51.5129C38.7049 51.5146 38.7034 51.5146 38.7016 51.5146C38.5962 51.5724 38.4772 51.6045 38.3567 51.6045C38.3057 51.6045 38.2563 51.5978 38.2071 51.5877C38.01 51.5452 37.8383 51.4212 37.738 51.2463C37.6446 51.0816 37.6174 50.8897 37.6684 50.7063C37.7176 50.5212 37.8349 50.3666 37.9998 50.2716C38.01 50.2664 38.0184 50.2631 38.0269 50.258C38.0269 50.258 38.0269 50.2563 38.0286 50.2563L38.0558 50.241C38.2071 50.1578 38.3838 50.1306 38.5538 50.1663C38.7491 50.2088 38.9191 50.3326 39.0194 50.5042C39.1095 50.6587 39.1384 50.8387 39.101 51.012Z" fill="#5A5954"></path>
<path d="M34.9992 51.9765C34.9975 52.0272 34.9924 52.0763 34.9822 52.1252C34.9484 52.2809 34.8603 52.4212 34.7334 52.5243C34.6082 52.6258 34.4491 52.6816 34.2883 52.6816L34.224 52.68C34.1766 52.68 34.1309 52.6749 34.0835 52.6647C33.7552 52.5936 33.52 52.296 33.525 51.9596C33.5301 51.574 33.8483 51.2612 34.2358 51.2612H34.3001C34.3424 51.2612 34.3899 51.2663 34.439 51.2764C34.7656 51.3474 35.0025 51.6417 34.9992 51.9765ZM30.4565 39.8825C30.4175 40.0669 30.3059 40.2257 30.1468 40.329L30.135 40.3357C30.1315 40.3373 30.1264 40.3408 30.1231 40.3441L30.096 40.361C29.9826 40.4321 29.8523 40.4693 29.7203 40.4693C29.6695 40.4693 29.6188 40.4643 29.568 40.4524C29.3852 40.4134 29.2278 40.3053 29.1245 40.148C29.0196 39.9873 28.9841 39.7946 29.0246 39.6052C29.0654 39.4242 29.1719 39.2687 29.3293 39.1655C29.3446 39.1537 29.3615 39.1435 29.3784 39.1334C29.5375 39.0302 29.7288 38.9947 29.9132 39.037L29.9386 39.042C29.9403 39.042 29.9403 39.042 29.9421 39.0438C30.1146 39.0878 30.2636 39.196 30.3618 39.3464C30.4633 39.5054 30.4971 39.6965 30.4565 39.8825ZM28.7675 41.626L28.7403 41.6648C28.6066 41.8491 28.3916 41.9591 28.1632 41.9591C28.1124 41.9591 28.0617 41.954 28.0126 41.9438C27.916 41.9236 27.8264 41.883 27.7485 41.8271C27.5184 41.6615 27.4084 41.3774 27.4676 41.1017C27.4879 41.0053 27.5285 40.9158 27.5861 40.8346L27.6199 40.7872C27.7858 40.5606 28.0718 40.454 28.3443 40.5132C28.4425 40.5336 28.5339 40.5741 28.6152 40.6351C28.7657 40.7467 28.8673 40.9107 28.896 41.0984C28.9249 41.2861 28.8791 41.4738 28.7675 41.626ZM27.9364 43.3406L27.9331 43.3491C27.9331 43.3557 27.9279 43.3711 27.9228 43.3879C27.8382 43.6923 27.5572 43.9054 27.2391 43.9054C27.1883 43.9054 27.1375 43.9004 27.0884 43.8901C27.075 43.8868 27.0614 43.8833 27.0478 43.88C26.6857 43.7785 26.4639 43.4134 26.5435 43.0463C26.5468 43.0345 26.5503 43.0211 26.5536 43.0108L26.5706 42.95C26.6739 42.5915 27.0377 42.3716 27.4033 42.4512L27.427 42.4562C27.4287 42.4562 27.4303 42.4562 27.432 42.4579C27.4371 42.4595 27.4439 42.4613 27.4489 42.463C27.6317 42.5154 27.7823 42.6354 27.8755 42.8012C27.9669 42.9669 27.9888 43.1597 27.9364 43.3406ZM40.9568 47.5072C40.9533 47.5122 40.95 47.5173 40.9465 47.5225L40.9568 47.5072Z" fill="#5A5954"></path>
<path d="M40.956 47.5193L40.9456 47.5338C40.9491 47.529 40.9525 47.5241 40.956 47.5193ZM42.2292 47.621C42.1716 47.4903 42.0756 47.3823 41.9481 47.3065C41.8747 47.2613 41.7908 47.229 41.7054 47.2129C41.5604 47.1839 41.4118 47.1952 41.2757 47.2467C41.1342 47.2984 41.0172 47.3887 40.9333 47.5065L40.9072 47.5452C40.6854 47.8563 40.7797 48.279 41.1167 48.4837C41.2373 48.5563 41.377 48.5934 41.5201 48.5934C41.6146 48.5934 41.7054 48.5773 41.7909 48.5449C41.9323 48.4934 42.0512 48.4047 42.1332 48.2869L42.1647 48.2418C42.2135 48.1724 42.2484 48.0966 42.2659 48.016C42.2974 47.8838 42.2851 47.7467 42.2292 47.621Z" fill="#5A5954"></path>
<path d="M40.9549 47.5505C40.9514 47.5557 40.9481 47.5607 40.9447 47.5658L40.9549 47.5505ZM27.6569 45.3316C27.6602 45.3945 27.6551 45.4575 27.6416 45.5203C27.5753 45.8349 27.3033 46.0661 26.982 46.0848H26.9411C26.8919 46.0848 26.8409 46.0798 26.7916 46.0695C26.4788 45.9998 26.2477 45.7295 26.2306 45.4081C26.2289 45.3893 26.2289 45.369 26.2273 45.3503C26.2188 45.1599 26.285 44.9762 26.4143 44.8367C26.5418 44.6939 26.7185 44.6124 26.9089 44.6038C26.9718 44.6021 27.033 44.6072 27.0925 44.6192C27.4087 44.6889 27.6381 44.9609 27.6534 45.2856L27.6569 45.3316ZM40.8377 49.744C40.8071 49.8851 40.7356 50.011 40.6319 50.1113L40.5895 50.1505C40.4568 50.2728 40.2835 50.3425 40.1016 50.3425C40.0506 50.3425 39.9996 50.3357 39.9503 50.3256C39.8075 50.295 39.68 50.2218 39.5798 50.1164C39.4505 49.9769 39.3825 49.795 39.3893 49.6045C39.3944 49.4141 39.4744 49.2374 39.6137 49.1064C39.6255 49.0944 39.6375 49.0843 39.6494 49.0741C39.821 48.9109 40.0607 48.8445 40.292 48.8939C40.4331 48.9245 40.5589 48.9958 40.6591 49.1012C40.8206 49.273 40.8886 49.5127 40.8377 49.744ZM28.1107 47.6373C28.0614 47.8668 27.9016 48.0573 27.684 48.1474C27.5974 48.1831 27.5073 48.2001 27.4137 48.2001C27.3628 48.2001 27.3118 48.195 27.2624 48.1848C27.0312 48.1338 26.8409 47.974 26.7508 47.7562C26.7456 47.7394 26.7389 47.7241 26.7321 47.707C26.6607 47.5267 26.6623 47.3312 26.7371 47.1543C26.8119 46.9809 26.9514 46.8449 27.1281 46.7735C27.2608 46.7207 27.4052 46.7089 27.5447 46.7395C27.7776 46.7904 27.9679 46.952 28.0562 47.1731L28.0648 47.1952C28.0682 47.2019 28.0715 47.2105 28.0733 47.2173C28.1277 47.3499 28.1413 47.4945 28.1107 47.6373ZM29.236 49.4889C29.202 49.6471 29.1186 49.7865 28.9946 49.8886C28.8671 49.9957 28.704 50.0552 28.5391 50.0552C28.4881 50.0552 28.4354 50.0501 28.3844 50.0381C28.2297 50.0042 28.0921 49.9209 27.9882 49.7985L27.9526 49.7543C27.8319 49.6063 27.7741 49.4209 27.7929 49.2304C27.8115 49.0401 27.9033 48.87 28.0495 48.7493C28.2195 48.6081 28.4405 48.5554 28.6546 48.6013C28.8127 48.637 28.9504 48.7205 29.0541 48.8462L29.0864 48.8836C29.2275 49.0537 29.2819 49.273 29.236 49.4889ZM37.1064 51.9017C37.052 52.1534 36.8685 52.3558 36.6253 52.4324L36.593 52.4425C36.5811 52.4459 36.5676 52.4493 36.5573 52.4527L36.5472 52.456C36.4843 52.4731 36.4197 52.4816 36.3568 52.4816C36.3058 52.4816 36.2548 52.4765 36.2054 52.4646C35.9437 52.4085 35.7381 52.2129 35.6683 51.9562C35.6174 51.7725 35.6412 51.5805 35.7363 51.4137C35.8315 51.2471 35.9845 51.1281 36.168 51.0787L36.214 51.0652C36.3261 51.0346 36.4451 51.0295 36.559 51.0551C36.8174 51.1111 37.0231 51.305 37.0944 51.5582C37.1268 51.6706 37.1302 51.7896 37.1064 51.9017ZM29.6881 51.3083C29.6984 51.3168 29.7086 51.3236 29.7204 51.3304L29.7255 51.3339C29.7119 51.3254 29.7001 51.3168 29.6881 51.3083Z" fill="#5A5954"></path>
<path d="M29.7499 51.3045C29.7377 51.2974 29.7273 51.2905 29.7169 51.2818C29.7291 51.2905 29.7412 51.2991 29.7551 51.3079L29.7499 51.3045ZM30.8635 50.4828C30.81 50.3433 30.7148 50.2263 30.5921 50.1426L30.5782 50.1339C30.5696 50.1287 30.5609 50.1217 30.5505 50.1147C30.4813 50.0677 30.407 50.0327 30.3257 50.0118C30.324 50.0118 30.324 50.0101 30.3222 50.0101L30.2964 50.0049C30.0059 49.942 29.7102 50.0607 29.5424 50.3101C29.3176 50.6433 29.4058 51.1021 29.7395 51.3306C29.7551 51.3393 29.7689 51.3498 29.7828 51.3602C29.9038 51.4422 30.0421 51.4841 30.1874 51.4841C30.279 51.4841 30.369 51.4666 30.4536 51.4318C30.5921 51.3794 30.7079 51.2835 30.7909 51.1597C30.8427 51.0811 30.8774 50.9956 30.898 50.9067C30.9275 50.7653 30.9154 50.6189 30.8635 50.4828Z" fill="#5A5954"></path>
<path d="M29.6939 51.2281C29.704 51.2366 29.7143 51.2434 29.7261 51.2502L29.7313 51.2536C29.7176 51.2451 29.7057 51.2366 29.6939 51.2281ZM32.8132 51.789C32.8098 51.8061 32.8047 51.8248 32.7997 51.8417C32.747 52.0151 32.633 52.1614 32.4768 52.2531C32.3681 52.3178 32.2441 52.35 32.1166 52.35C32.047 52.35 31.9772 52.3414 31.9111 52.3211L31.8549 52.3041C31.6732 52.248 31.5237 52.1239 31.4354 51.9557C31.3453 51.7874 31.3266 51.5935 31.3827 51.4117C31.4354 51.2401 31.5509 51.0955 31.7055 51.0037C31.8601 50.9138 32.0419 50.8865 32.2152 50.9239L32.2406 50.9289C32.2423 50.9289 32.2441 50.9306 32.2441 50.9306C32.2559 50.9324 32.2644 50.9358 32.2747 50.9392L32.3222 50.9545C32.4954 51.0054 32.64 51.1211 32.7317 51.2757C32.8233 51.4321 32.8522 51.614 32.8132 51.789ZM50.1531 31.6261C50.1021 31.9814 49.9169 32.2975 49.6298 32.5151C49.3954 32.692 49.115 32.7871 48.8194 32.7871C48.6155 32.7871 48.4099 32.7395 48.2281 32.6511C48.0345 32.5577 47.8714 32.4217 47.7423 32.25L47.6981 32.1923L47.6845 32.1735C47.5111 31.9389 47.4212 31.6619 47.4212 31.3711C47.4245 30.9462 47.6182 30.5569 47.9547 30.3003C48.1907 30.1202 48.4727 30.025 48.7684 30.025C49.1948 30.025 49.5857 30.2205 49.8405 30.5569C49.8523 30.5722 49.8643 30.5875 49.8727 30.5978C49.8779 30.6046 49.883 30.6114 49.8948 30.6267C50.1107 30.9156 50.2023 31.2692 50.1531 31.6261ZM45.0171 68.6442L44.9695 68.6612C44.9508 68.668 44.9303 68.6748 44.91 68.6798C44.9015 68.6833 44.8914 68.6866 44.8811 68.6901C44.7639 68.7224 44.6433 68.7393 44.5226 68.7393C43.9586 68.7393 43.4489 68.3824 43.2552 67.8503C43.1329 67.5138 43.1482 67.1467 43.3011 66.8203C43.4437 66.5143 43.6885 66.2781 43.996 66.1489C44.0028 66.1456 44.0096 66.1438 44.0164 66.1404C44.0299 66.1336 44.0452 66.1285 44.0588 66.1235L44.0962 66.1098C44.1148 66.103 44.1336 66.0979 44.1522 66.0911C44.1642 66.0877 44.1761 66.0843 44.1879 66.0809C44.1947 66.0791 44.2032 66.0776 44.2084 66.0741C44.2117 66.0741 44.2152 66.0724 44.2185 66.0724H44.222C44.2406 66.0673 44.2576 66.0638 44.2763 66.0605C44.2898 66.0571 44.3034 66.0537 44.3171 66.052C44.3205 66.0503 44.3205 66.0503 44.3239 66.0503C44.3358 66.0487 44.3476 66.047 44.3596 66.0452C44.3697 66.0435 44.3817 66.0435 44.3902 66.0418C44.4003 66.0402 44.4105 66.0384 44.4207 66.0384C44.4241 66.0367 44.4259 66.0367 44.4292 66.0367C44.436 66.035 44.4427 66.035 44.4495 66.035H44.453C44.458 66.035 44.4648 66.035 44.4716 66.0334H44.4784C44.504 66.0299 44.5294 66.0299 44.5549 66.0299C44.7503 66.0299 44.9456 66.0724 45.1274 66.1574C45.4537 66.3103 45.7018 66.5823 45.8241 66.9189C46.0755 67.6192 45.7136 68.3927 45.0171 68.6442ZM50.814 52.3568C50.8157 52.6491 50.724 52.928 50.549 53.1642L50.4996 53.2322C50.3688 53.4056 50.2058 53.5416 50.0138 53.6367C49.8303 53.7286 49.6231 53.7761 49.4175 53.7761C49.1269 53.7761 48.8483 53.6827 48.6138 53.5075C48.0175 53.064 47.8952 52.2174 48.3436 51.614C48.3522 51.602 48.3607 51.5919 48.3692 51.58L48.3845 51.5596C48.5136 51.3845 48.6768 51.2486 48.8704 51.1533C49.0556 51.0616 49.2611 51.014 49.4684 51.014C49.7572 51.014 50.0341 51.1058 50.2669 51.2775C50.4436 51.4083 50.5795 51.5698 50.673 51.7619C50.7647 51.9471 50.814 52.1511 50.814 52.3568ZM41.0974 68.9621C40.9905 69.6097 40.4399 70.0856 39.7858 70.0924L39.7298 70.0941C39.2915 70.0941 38.8802 69.88 38.6254 69.5196C38.4114 69.2238 38.3264 68.8635 38.3859 68.5048C38.493 67.8641 39.0401 67.3897 39.6959 67.3779C39.7162 67.3762 39.7366 67.3762 39.7552 67.3762C40.236 67.3762 40.6796 67.6312 40.9224 68.0526C41.0873 68.3264 41.1484 68.6492 41.0974 68.9621ZM35.4568 68.9042C35.4518 69.2613 35.309 69.5961 35.0541 69.8442C34.801 70.0941 34.4663 70.2319 34.1113 70.2319V70.2335L34.0059 70.2301C33.6458 70.2249 33.3094 70.0771 33.0613 69.8188C32.8098 69.5603 32.6756 69.2187 32.6824 68.8583C32.6875 68.5031 32.8319 68.17 33.0867 67.9201C33.3416 67.6702 33.6762 67.5326 34.0212 67.5326C34.0297 67.5326 34.0382 67.5343 34.045 67.5343L34.1316 67.5359C34.4902 67.5411 34.8266 67.6872 35.078 67.9456C35.3277 68.2057 35.4619 68.5456 35.4568 68.9042ZM29.8468 68.1241C29.8468 68.2278 29.8332 68.3332 29.8094 68.4368C29.7364 68.7377 29.5699 68.9961 29.3286 69.1864C29.0058 69.4346 28.5895 69.5314 28.1835 69.433L28.1358 69.4227C28.1223 69.4193 28.1087 69.4142 28.1002 69.4125C27.3798 69.2375 26.9347 68.5049 27.1114 67.7841C27.1845 67.4832 27.3527 67.2266 27.5957 67.0379C27.9166 66.7897 28.3449 66.698 28.7339 66.7914L28.8172 66.8118C29.1162 66.885 29.3745 67.0514 29.5614 67.2946C29.7465 67.5308 29.8468 67.8249 29.8468 68.1241ZM24.5256 66.1064C24.5256 66.3053 24.4814 66.499 24.3948 66.6827C24.2826 66.9189 24.1076 67.1144 23.8884 67.2504C23.5027 67.4884 23.0049 67.5155 22.6039 67.3252L22.5258 67.2861C22.2014 67.133 21.9566 66.8611 21.8361 66.5195C21.7154 66.1812 21.7341 65.8158 21.8886 65.4911C22.0008 65.2548 22.1758 65.0593 22.395 64.9251C22.6107 64.7925 22.8555 64.721 23.1068 64.721C23.2971 64.721 23.4824 64.7619 23.6591 64.84L23.7576 64.8877C23.9921 64.9999 24.1874 65.1733 24.3233 65.3942C24.4558 65.6083 24.5256 65.8548 24.5256 66.1064ZM19.8669 62.853C19.8669 63.1895 19.7412 63.5108 19.5152 63.759C19.2604 64.0394 18.8968 64.201 18.5179 64.201C18.1815 64.201 17.8604 64.0768 17.6073 63.8456C17.5953 63.8373 17.5852 63.827 17.5716 63.8134L17.5495 63.7929C17.2844 63.5499 17.1282 63.2184 17.1129 62.8598C17.0976 62.4995 17.2216 62.1544 17.4645 61.8892C17.7193 61.6105 18.0813 61.4507 18.4602 61.4507C18.7982 61.4507 19.1193 61.5764 19.3691 61.8043L19.4251 61.8553C19.7055 62.1102 19.8669 62.474 19.8669 62.853ZM16.2362 58.4828C16.2379 58.9316 16.017 59.3497 15.6466 59.603C15.4224 59.7543 15.1606 59.8359 14.8905 59.8359C14.442 59.8359 14.0258 59.6149 13.7709 59.241L13.7267 59.1747C13.5263 58.8771 13.4515 58.5186 13.5212 58.165C13.5908 57.8114 13.7913 57.5055 14.0903 57.3049C14.3129 57.1536 14.5728 57.0737 14.843 57.0737C15.2932 57.0737 15.7095 57.2964 15.961 57.667L16.0034 57.7298C16.1546 57.9542 16.2362 58.2142 16.2362 58.4828ZM13.7098 53.4447C13.7098 53.7319 13.6146 54.0175 13.443 54.2504C13.2646 54.4901 13.0183 54.66 12.7294 54.7416C12.3319 54.8538 11.8952 54.7739 11.5656 54.5308C11.3278 54.3575 11.1579 54.1161 11.0712 53.834L11.0678 53.822C10.9489 53.4872 10.9642 53.125 11.1137 52.8038C11.2615 52.4809 11.5266 52.2345 11.8596 52.107C12.0125 52.0492 12.1722 52.0186 12.337 52.0186C12.6071 52.0186 12.8688 52.1002 13.0947 52.2531C13.3241 52.4079 13.4974 52.6288 13.5959 52.8888C13.6197 52.9518 13.6401 53.013 13.6571 53.0758C13.6928 53.1965 13.7098 53.3205 13.7098 53.4447ZM12.179 47.973C12.179 48.6496 11.6727 49.2224 11.0016 49.3074C10.9421 49.3158 10.8843 49.3193 10.83 49.3193C10.1538 49.3193 9.58121 48.811 9.49626 48.1414L9.48946 48.0887C9.48777 48.0784 9.48607 48.0682 9.48437 48.0529C9.4419 47.6959 9.53874 47.3441 9.7613 47.0586C9.98387 46.7748 10.3016 46.5961 10.6601 46.552C10.7144 46.5452 10.7688 46.5436 10.8249 46.5436C11.5045 46.5436 12.0787 47.0517 12.1603 47.7333L12.1705 47.7996C12.1773 47.8626 12.1807 47.9203 12.179 47.973ZM52.8544 47.6432C52.8544 47.7775 52.8341 47.9118 52.7934 48.0428L52.7662 48.1277C52.6794 48.4047 52.5079 48.6428 52.2717 48.8128C51.9302 49.0592 51.4732 49.1323 51.0756 49.0065C50.7325 48.8977 50.4521 48.6632 50.2857 48.3419C50.1208 48.024 50.0886 47.6585 50.1973 47.3135L50.2194 47.2439C50.306 46.9633 50.4775 46.7236 50.7138 46.5537C50.9432 46.3855 51.2252 46.2954 51.5054 46.2954C51.6397 46.2954 51.774 46.3158 51.9064 46.3566C52.1868 46.4432 52.4246 46.6149 52.5963 46.8529C52.7628 47.0807 52.8544 47.3611 52.8544 47.6432ZM12.2129 42.374L12.2028 42.4488C12.1178 43.1219 11.5452 43.6284 10.8691 43.6284C10.8096 43.6284 10.7518 43.625 10.6974 43.6182C10.0264 43.5331 9.52005 42.9603 9.51836 42.2855C9.51836 42.226 9.52175 42.1682 9.53024 42.1087L9.53874 42.0289C9.62708 41.3591 10.2013 40.8526 10.8741 40.8526C10.9302 40.8526 10.9897 40.856 11.0491 40.8646C11.7848 40.9597 12.3081 41.6379 12.2129 42.374ZM53.6513 42.0646C53.6616 42.425 53.5307 42.7666 53.2843 43.0283C53.0362 43.2901 52.7015 43.4414 52.338 43.4515H52.3023C51.9506 43.4515 51.6194 43.3173 51.3662 43.0708C51.1114 42.8243 50.9669 42.4947 50.9568 42.1411L50.9533 42.0646V42.0238C50.9533 41.6736 51.0876 41.3405 51.3304 41.0872C51.5752 40.834 51.9048 40.6877 52.2564 40.6759C52.2717 40.6741 52.287 40.6741 52.3023 40.6741C52.6523 40.6741 52.9837 40.8084 53.2368 41.0531C53.4899 41.298 53.636 41.6278 53.648 41.9694C53.648 41.988 53.648 42.0051 53.6496 42.0238L53.6513 42.0646ZM13.5653 37.1947L13.5399 37.2592C13.4396 37.521 13.2663 37.7403 13.037 37.8967C12.6768 38.1414 12.2112 38.1976 11.8018 38.0412C11.5401 37.9409 11.321 37.7692 11.1647 37.538C11.0118 37.3137 10.9319 37.0501 10.9319 36.7816C10.9319 36.6167 10.9608 36.457 11.0203 36.304C11.0288 36.2819 11.0372 36.2598 11.0423 36.2445L11.0508 36.2224C11.1511 35.9623 11.3244 35.743 11.5537 35.5901C11.7797 35.4371 12.0397 35.3572 12.3098 35.3572C12.4746 35.3572 12.6377 35.3878 12.7923 35.4473C13.4855 35.7141 13.8338 36.496 13.5653 37.1947ZM52.5589 37.1114C52.3975 37.4326 52.1205 37.674 51.779 37.788C51.6414 37.8337 51.4971 37.8558 51.3525 37.8558C50.7715 37.8558 50.2585 37.4853 50.0766 36.9364L50.0477 36.8513C50.0035 36.717 49.9816 36.576 49.9798 36.4349C49.9798 36.1511 50.0665 35.8808 50.2312 35.6496C50.3994 35.4132 50.6322 35.2416 50.9091 35.1499C51.0451 35.1057 51.1843 35.0836 51.3288 35.0836C51.6108 35.0836 51.881 35.1702 52.112 35.3351C52.3465 35.5017 52.5198 35.7362 52.6098 36.0133L52.6319 36.0813C52.7457 36.4247 52.7186 36.7901 52.5589 37.1114ZM16.1224 32.5033L16.1019 32.5321C16.0968 32.5407 16.0901 32.5474 16.0833 32.556L16.0782 32.5662C15.825 32.9164 15.4155 33.127 14.9823 33.127C14.6986 33.127 14.4284 33.0386 14.1974 32.8722C13.844 32.6172 13.6333 32.2058 13.6367 31.7689C13.6384 31.4902 13.7251 31.2199 13.8882 30.9921C13.9001 30.9768 13.9102 30.9615 13.9221 30.9462L13.9391 30.9208C14.1923 30.5722 14.6 30.3649 15.0316 30.3649C15.317 30.3649 15.5889 30.4533 15.8216 30.6216C16.1139 30.8324 16.3042 31.1434 16.3619 31.5003C16.418 31.8557 16.3331 32.2126 16.1224 32.5033ZM20.2475 27.6758C20.2135 28.0328 20.0437 28.3575 19.7633 28.5886L19.7088 28.6363C19.466 28.8386 19.1584 28.9506 18.8441 28.9506C18.4431 28.9506 18.066 28.7739 17.8094 28.4662C17.6055 28.2232 17.4934 27.9138 17.4951 27.596C17.4968 27.1965 17.6735 26.8225 17.9794 26.5677L18.0439 26.5132C18.2852 26.3126 18.591 26.2021 18.9036 26.2021C19.3063 26.2021 19.6851 26.3789 19.9417 26.69C20.171 26.9653 20.2797 27.3154 20.2475 27.6758ZM46.1402 28.0073C46.0144 28.179 45.8462 28.3201 45.6542 28.4152C45.469 28.5071 45.2617 28.5563 45.0528 28.5563C44.7656 28.5563 44.4904 28.4646 44.261 28.298C44.2423 28.2827 44.2202 28.2656 44.1999 28.2521C44.0249 28.1246 43.8821 27.9564 43.7869 27.7642C43.6935 27.5789 43.6443 27.3716 43.6426 27.1625C43.6426 26.8769 43.7309 26.6016 43.8991 26.3687C44.1522 26.0203 44.56 25.8112 44.9916 25.8112C45.2753 25.8112 45.5489 25.8996 45.785 26.0712L45.853 26.1205C46.1435 26.333 46.3321 26.6475 46.3865 27.0044C46.4408 27.3596 46.3541 27.7167 46.1402 28.0073ZM24.974 24.9732C24.8483 25.3114 24.6002 25.5817 24.2655 25.7347L24.2045 25.7636C23.7932 25.9557 23.3023 25.9234 22.9217 25.6837C22.7008 25.546 22.5241 25.3471 22.4136 25.1109C22.3305 24.9307 22.288 24.7386 22.288 24.5414C22.288 24.2882 22.3593 24.04 22.4935 23.8258C22.6312 23.6049 22.8299 23.4298 23.0661 23.3193L23.1442 23.2836C23.3227 23.2003 23.513 23.1578 23.7083 23.1578C23.9615 23.1578 24.2095 23.2309 24.427 23.3669C24.6479 23.5046 24.8229 23.7034 24.9316 23.9431C25.0828 24.2695 25.0981 24.6349 24.974 24.9732ZM41.5273 24.6706C41.4288 24.9324 41.2555 25.1534 41.0244 25.3097C40.6643 25.5528 40.2021 25.6089 39.7926 25.4576L39.7248 25.4321C39.4597 25.3335 39.2388 25.1602 39.0791 24.929C38.9244 24.7012 38.843 24.436 38.843 24.1624C38.8446 24.006 38.8719 23.8496 38.9279 23.7C39.0248 23.4366 39.198 23.2122 39.4291 23.0541C39.6568 22.8994 39.9184 22.8178 40.1918 22.8178C40.35 22.8178 40.5079 22.8467 40.6575 22.9011L40.7424 22.9334C41.4373 23.1952 41.7889 23.9754 41.5273 24.6706ZM29.3608 24.1777L29.2877 24.1896C28.897 24.2525 28.4995 24.1437 28.1988 23.8921C27.9525 23.6847 27.7876 23.3975 27.7366 23.0813C27.7248 23.0082 27.718 22.9334 27.718 22.8586C27.718 22.5425 27.83 22.2348 28.0339 21.9917C28.2395 21.747 28.5284 21.5821 28.8461 21.5294C28.8716 21.5243 28.897 21.5209 28.9294 21.5158C28.999 21.5056 29.0686 21.5005 29.1383 21.5005C29.4544 21.5005 29.7703 21.611 30.0133 21.8167C30.2596 22.024 30.4228 22.313 30.4737 22.6309C30.5926 23.3652 30.0931 24.0587 29.3608 24.1777ZM36.15 22.8059C36.1058 23.1323 35.9444 23.4298 35.6981 23.6456C35.4518 23.8598 35.1392 23.9771 34.8163 23.9771C34.7586 23.9771 34.6991 23.9737 34.6413 23.9652C34.626 23.9635 34.6107 23.9618 34.5921 23.9584C34.5836 23.9584 34.5733 23.9567 34.5547 23.955C34.2301 23.9108 33.9328 23.751 33.7171 23.5029C33.503 23.2564 33.3857 22.9436 33.3857 22.6207C33.3857 22.5595 33.3892 22.5 33.3977 22.4405C33.4419 22.1141 33.6016 21.8167 33.8497 21.6008C34.1417 21.3475 34.5291 21.2302 34.9064 21.2812L34.92 21.2829C34.9454 21.2863 34.9727 21.2897 34.9913 21.2914C35.3481 21.339 35.6658 21.5243 35.8833 21.8099C36.1025 22.0954 36.1959 22.449 36.15 22.8059ZM47.7847 56.2578C47.783 56.6318 47.625 56.9904 47.3498 57.2454L47.3361 57.259C47.0847 57.4884 46.7602 57.6159 46.4204 57.6159C46.0466 57.6159 45.6865 57.4595 45.4317 57.1825C45.1869 56.9191 45.0596 56.5757 45.0749 56.2154C45.0884 55.855 45.2414 55.5219 45.508 55.2754L45.5216 55.2617C45.7731 55.0322 46.0976 54.9048 46.4357 54.9048C46.8111 54.9048 47.1714 55.0629 47.4262 55.3382C47.659 55.5881 47.7865 55.9145 47.7847 56.2578ZM43.5559 59.3191C43.0428 59.5555 42.4311 59.3311 42.1933 58.8176C42.0778 58.5696 42.0658 58.2908 42.1594 58.0325C42.2528 57.7757 42.4431 57.5684 42.6912 57.451L42.7676 57.4171C43.0156 57.3014 43.2926 57.2896 43.5491 57.3832C43.8057 57.4766 44.0113 57.6636 44.1284 57.91C44.1284 57.9118 44.1301 57.9151 44.1301 57.9168C44.2457 58.165 44.2594 58.4421 44.1658 58.7004C44.0724 58.9571 43.8838 59.1627 43.6375 59.2801C43.6104 59.292 43.5865 59.3055 43.5559 59.3191ZM40.4943 60.339C40.4247 60.3714 40.35 60.3951 40.2718 60.4104L40.2599 60.4138C40.236 60.4189 40.2124 60.4239 40.1885 60.4291C39.6312 60.5413 39.0876 60.1809 38.9754 59.625C38.9279 59.3939 38.9601 59.1611 39.0672 58.9503C39.2099 58.6766 39.4732 58.4743 39.7773 58.4132C39.791 58.4097 39.8029 58.4064 39.8147 58.4047C39.8267 58.4012 39.8385 58.3995 39.8521 58.3979C40.0798 58.3485 40.3211 58.3809 40.5283 58.488C40.7339 58.5933 40.8988 58.7651 40.9938 58.9724C41.0279 59.042 41.0517 59.1168 41.0686 59.1933C41.1162 59.4228 41.0839 59.6642 40.9786 59.8715C40.8732 60.0755 40.7017 60.2422 40.4943 60.339ZM37.2 60.6857C37.0692 60.7469 36.9299 60.7775 36.7855 60.781H36.7004C36.133 60.7895 35.6658 60.334 35.659 59.7663C35.6539 59.36 35.8901 58.9893 36.257 58.8176C36.3878 58.7582 36.5289 58.726 36.675 58.7242H36.7514C37.1576 58.7174 37.5312 58.9503 37.7029 59.3191C37.7624 59.4501 37.7946 59.5894 37.7963 59.7357C37.8031 60.1418 37.5686 60.5158 37.2 60.6857ZM33.9074 60.3883C33.6915 60.4869 33.4452 60.509 33.2142 60.4478C33.1989 60.4445 33.1819 60.4393 33.1666 60.4359L33.165 60.4342C33.158 60.4325 33.153 60.4309 33.1462 60.4309C32.8795 60.3629 32.6569 60.1962 32.516 59.96C32.3749 59.7237 32.334 59.4483 32.402 59.1815C32.4786 58.8789 32.684 58.6291 32.9679 58.4981C33.1801 58.3995 33.4231 58.3774 33.6491 58.4353C33.6712 58.4421 33.6882 58.4454 33.7035 58.4506L33.7103 58.4522C33.7204 58.4539 33.7289 58.4574 33.7392 58.459C34.0365 58.5372 34.2811 58.7428 34.4103 59.0234C34.5105 59.2393 34.5309 59.4857 34.4698 59.7151C34.3915 60.0143 34.1877 60.2592 33.9074 60.3883ZM30.6877 59.6268C30.4381 59.7424 30.1577 59.7525 29.9011 59.6574L29.8858 59.6523C29.8637 59.6438 29.8383 59.6336 29.8162 59.6268C29.5596 59.5282 29.3558 59.3361 29.2436 59.0863C29.1298 58.8347 29.123 58.556 29.2199 58.2993C29.315 58.046 29.5036 57.8438 29.7499 57.7298C30.003 57.6143 30.2852 57.6041 30.5451 57.7027C30.5672 57.7112 30.591 57.7196 30.6131 57.7281C30.8712 57.8217 31.0751 58.012 31.1906 58.2619C31.3061 58.5117 31.3164 58.7922 31.2212 59.0489C31.1261 59.3055 30.9375 59.5113 30.6877 59.6268ZM27.774 58.0596C27.4478 58.2109 27.074 58.182 26.775 57.9831L26.7682 57.9798C26.7478 57.966 26.7257 57.9509 26.7054 57.9372C26.233 57.6244 26.1056 56.9836 26.4182 56.5111C26.5252 56.353 26.6713 56.2272 26.843 56.1473C27.1709 55.996 27.5447 56.0249 27.8437 56.2255L27.9099 56.2681C28.068 56.3735 28.1953 56.5213 28.2752 56.693C28.4265 57.0193 28.3976 57.395 28.1988 57.6942C28.0934 57.8539 27.9473 57.9798 27.774 58.0596ZM25.1219 56.0726C24.7498 56.2442 24.3097 56.1797 24.0039 55.9059C23.9818 55.8856 23.9615 55.8668 23.9394 55.8464C23.5198 55.4657 23.4874 54.8147 23.868 54.3932C23.9615 54.2911 24.0719 54.2079 24.1977 54.15C24.5731 53.9766 25.0132 54.0446 25.3207 54.3217L25.3376 54.337C25.3496 54.349 25.3632 54.3608 25.375 54.3727C25.4804 54.4663 25.5636 54.5784 25.6231 54.7042C25.7963 55.0782 25.73 55.5184 25.4566 55.8244C25.3614 55.9298 25.2492 56.0131 25.1219 56.0726ZM42.8542 46.4161C42.6028 46.5316 42.3242 46.5419 42.0658 46.4466C41.5341 46.2495 41.2606 45.6579 41.4577 45.1259C41.4645 45.1072 41.4713 45.0902 41.4781 45.0716L41.4815 45.0596L41.4831 45.0579C41.5767 44.7961 41.7668 44.5887 42.0183 44.4715C42.2647 44.3576 42.5416 44.3457 42.7982 44.4374C43.0598 44.531 43.2687 44.723 43.3844 44.978C43.4982 45.2227 43.5084 45.4998 43.4183 45.7531C43.4081 45.782 43.398 45.8092 43.3877 45.8381C43.2926 46.0948 43.1023 46.3004 42.8542 46.4161ZM22.988 53.5466C22.5208 53.7625 21.9617 53.5959 21.6882 53.1608C21.6712 53.1353 21.6559 53.1099 21.6406 53.0861C21.3416 52.605 21.4911 51.9692 21.9719 51.67C22.0093 51.6462 22.0467 51.6259 22.0857 51.6088C22.5547 51.3914 23.1153 51.5613 23.389 52.0016C23.4008 52.0237 23.4144 52.044 23.4279 52.0644C23.4518 52.1018 23.4721 52.1409 23.4909 52.18C23.7083 52.6474 23.5419 53.2083 23.1052 53.4837C23.0678 53.5059 23.0287 53.528 22.988 53.5466ZM43.4081 43.1626C43.2773 43.2238 43.1363 43.2562 42.9918 43.2578C42.4244 43.2663 41.9571 42.8108 41.9486 42.2448V42.1717C41.9385 41.7621 42.173 41.3864 42.5451 41.2147C42.6724 41.1552 42.81 41.1229 42.9511 41.1196C43.3606 41.111 43.736 41.3439 43.9094 41.7144C43.9687 41.8437 44.0011 41.9813 44.0044 42.1241C44.0044 42.1547 44.0044 42.1853 44.0061 42.2141C44.0113 42.6205 43.7768 42.9927 43.4081 43.1626ZM21.5948 50.5448C21.5574 50.5619 21.5183 50.5772 21.4793 50.5908C20.9848 50.7505 20.4479 50.516 20.2305 50.0451C20.2117 50.006 20.1966 49.9686 20.1846 49.9277L20.1574 49.8446C20.0011 49.3516 20.2373 48.8178 20.7063 48.6002C20.7452 48.5832 20.7861 48.568 20.8268 48.5543C21.3671 48.3827 21.9465 48.6836 22.1181 49.2241C22.1249 49.2445 22.1316 49.2649 22.1384 49.2836L22.1419 49.2955C22.2998 49.7901 22.0671 50.3273 21.5948 50.5448ZM42.771 39.9246C42.7505 39.933 42.7286 39.9432 42.7081 39.95C42.178 40.154 41.5835 39.8905 41.3796 39.3602L41.3778 39.3569C41.3693 39.3346 41.3608 39.3143 41.354 39.2922H41.3523C41.1552 38.7857 41.3846 38.2094 41.8773 37.9817C41.896 37.9732 41.9147 37.9664 41.9334 37.9579C42.4379 37.7589 43.0139 37.9901 43.2433 38.483C43.2518 38.5018 43.2586 38.5204 43.2671 38.5392C43.2773 38.5664 43.2875 38.5936 43.2993 38.6225C43.4931 39.1256 43.2604 39.6985 42.771 39.9246ZM20.9594 47.2966C20.8472 47.3493 20.7266 47.3799 20.6026 47.3883C20.3902 47.4036 20.1828 47.3543 20.0011 47.2456C19.8227 47.1385 19.6834 46.9838 19.5968 46.7968C19.5441 46.6829 19.5135 46.5622 19.5034 46.4365C19.5016 46.4076 19.4999 46.3787 19.4982 46.3497C19.4829 46.1373 19.5338 45.9299 19.6443 45.7498C19.816 45.4642 20.1218 45.2789 20.4565 45.2551C21.0222 45.2177 21.5115 45.6477 21.5489 46.2154L21.5524 46.246C21.5524 46.2597 21.5539 46.2749 21.5557 46.2886C21.5693 46.501 21.52 46.7101 21.4113 46.892C21.3043 47.0705 21.1479 47.2098 20.9594 47.2966ZM41.0992 37.0757C40.6761 37.2712 40.175 37.1556 39.8777 36.7969C39.8624 36.7783 39.8453 36.7595 39.83 36.7409C39.7723 36.6711 39.723 36.5929 39.6839 36.513C39.4903 36.0916 39.6007 35.5901 39.9558 35.2909C40.0254 35.2315 40.1036 35.1821 40.1868 35.1447C40.6065 34.9509 41.1077 35.0631 41.405 35.4167C41.4238 35.4388 41.4424 35.4626 41.461 35.4847C41.636 35.6971 41.7193 35.9641 41.6922 36.2377C41.6666 36.5113 41.5375 36.7578 41.3251 36.9329C41.2555 36.9907 41.1808 37.0383 41.0992 37.0757ZM21.1241 43.9904C20.9355 44.0788 20.7283 44.1061 20.5227 44.072C20.188 44.0142 19.9026 43.7966 19.7598 43.4874C19.6732 43.2986 19.6443 43.0913 19.6799 42.8855C19.6851 42.8567 19.6885 42.8278 19.6953 42.8007C19.753 42.4674 19.9706 42.1853 20.278 42.0425C20.4667 41.9558 20.6774 41.9286 20.8828 41.9642C21.4419 42.0612 21.8173 42.5949 21.7206 43.1541C21.7154 43.1779 21.7121 43.2035 21.7086 43.2289C21.6508 43.5621 21.4334 43.8476 21.1241 43.9904ZM38.6068 34.9102C38.2959 35.0546 37.9357 35.0342 37.6417 34.8575C37.6213 34.8439 37.5992 34.8319 37.5789 34.8184C37.4004 34.713 37.2595 34.5566 37.1729 34.3679C37.0301 34.0586 37.0488 33.7017 37.2221 33.4093C37.3291 33.2291 37.4855 33.0896 37.674 33.003C37.9816 32.8602 38.3401 32.879 38.6322 33.0522C38.6577 33.0675 38.6831 33.0828 38.7087 33.0981C39.193 33.3923 39.3475 34.0263 39.0536 34.5107C38.9465 34.6875 38.792 34.8251 38.6068 34.9102ZM22.0433 40.8101C21.7834 40.9308 21.4809 40.9359 21.2159 40.8254C20.9797 40.7251 20.7894 40.5433 20.6807 40.3121C20.5584 40.0486 20.5516 39.746 20.6637 39.4792C20.6739 39.452 20.6857 39.4265 20.6977 39.3993C20.7979 39.163 20.9797 38.9744 21.2125 38.8673C21.4758 38.7466 21.7799 38.7415 22.0467 38.8554C22.5683 39.0763 22.8113 39.6815 22.5904 40.205C22.5836 40.2186 22.5785 40.2322 22.5717 40.2459C22.5683 40.2542 22.5649 40.2628 22.5615 40.2713C22.5615 40.2713 22.5615 40.273 22.5597 40.273C22.4613 40.511 22.2778 40.7014 22.0433 40.8101ZM35.5469 33.6643C35.3345 33.7627 35.1035 33.7848 34.8758 33.7305C34.8537 33.7254 34.8316 33.7203 34.8113 33.7152L34.8045 33.7135H34.8028C34.4935 33.6405 34.2404 33.4347 34.1061 33.1458C34.0076 32.9367 33.9821 32.7055 34.0365 32.4777C34.1078 32.1667 34.3167 31.9117 34.6074 31.7774C34.8163 31.6805 35.0456 31.6567 35.27 31.7094C35.2853 31.7129 35.3022 31.7179 35.3175 31.7214L35.3566 31.7298C35.907 31.8625 36.2485 32.4182 36.1161 32.9706C36.0413 33.2783 35.834 33.5316 35.5469 33.6643ZM23.6828 37.9341C23.3363 38.0955 22.9336 38.0513 22.6295 37.8202C22.4969 37.72 22.3882 37.5873 22.3202 37.4361C22.1588 37.0893 22.2014 36.6847 22.4324 36.3805V36.3788L22.4409 36.3686C22.4528 36.3533 22.4646 36.338 22.4748 36.3243L22.4867 36.309C22.587 36.1782 22.7194 36.0728 22.869 36.0031C23.2173 35.8416 23.6233 35.8875 23.9293 36.1222C24.1467 36.2904 24.286 36.5334 24.32 36.8054C24.3556 37.0774 24.2826 37.3476 24.1161 37.5652C24.1008 37.5839 24.0855 37.6043 24.0702 37.6231C23.97 37.7574 23.8341 37.8643 23.6828 37.9341ZM32.2559 33.3566C32.1353 33.4126 32.0079 33.445 31.8753 33.45C31.8601 33.4517 31.8431 33.4517 31.8261 33.4535L31.8022 33.4552C31.5916 33.467 31.3861 33.4143 31.2077 33.3056C31.0327 33.1985 30.8968 33.0438 30.8102 32.8585C30.7557 32.7412 30.7251 32.6154 30.7183 32.4845C30.7065 32.2754 30.7575 32.0698 30.8662 31.8913C31.0412 31.6058 31.3503 31.4205 31.6867 31.4001C31.7123 31.4001 31.7394 31.3984 31.765 31.3967H31.7734C32.341 31.3678 32.8234 31.8063 32.8522 32.3723C32.8727 32.7939 32.6382 33.1797 32.2559 33.3566ZM26.0359 35.6139C25.5959 35.8161 25.0675 35.6818 24.7787 35.2927C24.7362 35.2332 24.6988 35.172 24.67 35.1073C24.5731 34.8966 24.551 34.6552 24.6072 34.4274C24.6649 34.1979 24.8025 33.9939 24.9928 33.8528C25.0165 33.836 25.0403 33.8189 25.0624 33.8001C25.1184 33.7594 25.1779 33.7254 25.2391 33.6965C25.6825 33.4926 26.2126 33.6302 26.4998 34.0245C26.8345 34.4818 26.7343 35.1261 26.2771 35.4609C26.2585 35.4745 26.2399 35.488 26.2211 35.5033L26.2178 35.5051C26.1599 35.5475 26.0988 35.5833 26.0359 35.6139ZM29.0176 34.0059C28.9905 34.0195 28.9633 34.0297 28.9362 34.0398C28.9123 34.0483 28.8903 34.0569 28.8664 34.0654H28.8647C28.6218 34.1555 28.355 34.1503 28.1137 34.0501C27.8742 33.9497 27.6839 33.7662 27.5752 33.5316C27.5651 33.5078 27.5548 33.4823 27.5463 33.4585C27.4546 33.2138 27.4597 32.947 27.5599 32.7073C27.6703 32.442 27.8845 32.2364 28.1529 32.1361C28.18 32.1258 28.2073 32.1157 28.2362 32.1055C28.768 31.9134 29.3592 32.1905 29.5528 32.7226C29.6412 32.9673 29.6344 33.2324 29.5342 33.4721C29.4339 33.7085 29.2505 33.8988 29.0176 34.0059Z" fill="#5A5954"></path>
<path d="M103.951 71.2344C100.891 71.2344 98.1372 70.5 95.6892 69.0312C93.2412 67.5216 91.3032 65.4816 89.8752 62.9112C88.4472 60.3 87.7332 57.3828 87.7332 54.1596C87.7332 50.9364 88.4268 48.06 89.814 45.5304C91.2012 42.96 93.078 40.9404 95.4444 39.4716C97.8108 38.0028 100.463 37.2684 103.4 37.2684C105.644 37.2684 107.664 37.6764 109.459 38.4924C111.295 39.3084 112.866 40.4508 114.172 41.9196C115.518 43.3476 116.538 45 117.232 46.8768C117.966 48.7128 118.333 50.6508 118.333 52.6908C118.333 53.0988 118.313 53.5272 118.272 53.976C118.231 54.4248 118.17 54.894 118.088 55.3836H89.8752V52.0176H116.008L114.355 53.3028C114.6 50.9364 114.253 48.8148 113.315 46.938C112.376 45.0204 111.03 43.5108 109.276 42.4092C107.562 41.2668 105.604 40.6956 103.4 40.6956C101.197 40.6956 99.1776 41.2872 97.3416 42.4704C95.5056 43.6128 94.0572 45.204 92.9964 47.244C91.9356 49.2432 91.446 51.5688 91.5276 54.2208C91.446 56.8728 91.956 59.2188 93.0576 61.2588C94.1592 63.2988 95.6688 64.9104 97.5864 66.0936C99.504 67.236 101.626 67.8072 103.951 67.8072C106.318 67.8072 108.378 67.2564 110.132 66.1548C111.887 65.0124 113.315 63.5028 114.416 61.626L117.538 63.2784C116.803 64.788 115.763 66.1548 114.416 67.3788C113.07 68.562 111.499 69.5004 109.704 70.194C107.95 70.8876 106.032 71.2344 103.951 71.2344ZM125.867 70.5V38.0028H129.539V44.5512L128.865 43.6332C129.681 41.6748 130.987 40.1244 132.782 38.982C134.618 37.8396 136.658 37.2684 138.902 37.2684C141.432 37.2684 143.737 38.0028 145.818 39.4716C147.899 40.8996 149.347 42.8172 150.163 45.2244L149 45.2856C149.694 42.7968 151.061 40.8384 153.101 39.4104C155.181 37.9824 157.487 37.2684 160.016 37.2684C162.179 37.2684 164.157 37.7784 165.953 38.7984C167.789 39.8184 169.257 41.2464 170.359 43.0824C171.501 44.8776 172.073 46.938 172.073 49.2636V70.5H168.401V50.304C168.401 48.3456 167.993 46.6728 167.177 45.2856C166.401 43.8576 165.361 42.7764 164.055 42.042C162.75 41.2668 161.281 40.8792 159.649 40.8792C157.895 40.8792 156.344 41.3076 154.998 42.1644C153.692 43.0212 152.652 44.2044 151.877 45.714C151.142 47.2236 150.775 48.9576 150.775 50.916V70.5H147.103V50.304C147.103 48.3456 146.715 46.6728 145.94 45.2856C145.165 43.8576 144.104 42.7764 142.758 42.042C141.452 41.2668 139.983 40.8792 138.351 40.8792C136.597 40.8792 135.047 41.3076 133.7 42.1644C132.395 43.0212 131.375 44.2044 130.64 45.714C129.906 47.2236 129.539 48.9576 129.539 50.916V70.5H125.867ZM180.284 82.74V38.0028H183.956V46.2036L183.344 45.0408C184.568 42.6744 186.323 40.7976 188.608 39.4104C190.933 37.9824 193.585 37.2684 196.564 37.2684C199.624 37.2684 202.357 38.0028 204.764 39.4716C207.172 40.9404 209.069 42.96 210.456 45.5304C211.843 48.1008 212.537 51.018 212.537 54.282C212.537 57.4644 211.843 60.3408 210.456 62.9112C209.069 65.4816 207.172 67.5216 204.764 69.0312C202.357 70.5 199.624 71.2344 196.564 71.2344C193.585 71.2344 190.913 70.5204 188.546 69.0924C186.221 67.6236 184.487 65.6244 183.344 63.0948L183.956 62.238V82.74H180.284ZM196.441 67.5624C198.767 67.5624 200.848 66.9912 202.684 65.8488C204.52 64.6656 205.968 63.0744 207.029 61.0752C208.09 59.0352 208.62 56.7504 208.62 54.2208C208.62 51.6912 208.09 49.4268 207.029 47.4276C205.968 45.4284 204.52 43.8576 202.684 42.7152C200.848 41.532 198.767 40.9404 196.441 40.9404C194.116 40.9404 192.014 41.532 190.138 42.7152C188.261 43.8576 186.772 45.4284 185.67 47.4276C184.568 49.4268 184.018 51.6912 184.018 54.2208C184.018 56.7504 184.568 59.0352 185.67 61.0752C186.772 63.0744 188.24 64.6656 190.076 65.8488C191.953 66.9912 194.075 67.5624 196.441 67.5624ZM220.119 70.5V38.0028H223.791V70.5H220.119ZM220.119 31.638V24.906H223.791V31.638H220.119ZM232.641 70.5V38.0028H236.313V44.0616L235.64 43.5108C236.334 41.6748 237.517 40.2264 239.19 39.1656C240.903 38.1048 242.923 37.5744 245.249 37.5744H247.329V41.2464H244.82C242.168 41.2464 240.087 42.1032 238.578 43.8168C237.068 45.4896 236.313 47.754 236.313 50.61V70.5H232.641ZM252.156 70.5V38.0028H255.828V70.5H252.156ZM252.156 31.638V24.906H255.828V31.638H252.156ZM279.489 71.2344C276.388 71.2344 273.613 70.5 271.165 69.0312C268.758 67.5216 266.841 65.4816 265.413 62.9112C264.025 60.3408 263.332 57.444 263.332 54.2208C263.332 50.9568 264.025 48.06 265.413 45.5304C266.841 42.96 268.758 40.9404 271.165 39.4716C273.613 38.0028 276.388 37.2684 279.489 37.2684C281.529 37.2684 283.405 37.6152 285.119 38.3088C286.873 39.0024 288.424 39.9408 289.77 41.124C291.117 42.3072 292.137 43.674 292.83 45.2244L289.587 46.938C288.607 45.0612 287.241 43.572 285.486 42.4704C283.732 41.3688 281.733 40.818 279.489 40.818C277.163 40.818 275.062 41.3892 273.185 42.5316C271.349 43.674 269.88 45.2652 268.779 47.3052C267.677 49.3044 267.126 51.6096 267.126 54.2208C267.126 56.832 267.677 59.1576 268.779 61.1976C269.88 63.1968 271.349 64.7676 273.185 65.91C275.062 67.0524 277.163 67.6236 279.489 67.6236C281.733 67.6236 283.732 67.0728 285.486 65.9712C287.241 64.8696 288.607 63.36 289.587 61.4424L292.83 63.2172C292.137 64.7268 291.117 66.0936 289.77 67.3176C288.424 68.5008 286.873 69.4596 285.119 70.194C283.405 70.8876 281.529 71.2344 279.489 71.2344ZM309.094 71.2344C307.054 71.2344 305.238 70.8468 303.647 70.0716C302.056 69.2964 300.791 68.2152 299.853 66.828C298.914 65.4408 298.445 63.8496 298.445 62.0544C298.445 60.4632 298.792 58.974 299.486 57.5868C300.179 56.1996 301.301 55.0164 302.852 54.0372C304.402 53.0172 306.422 52.3032 308.91 51.8952L322.068 49.692V53.1192L309.89 55.1388C307.115 55.5876 305.157 56.424 304.014 57.648C302.872 58.872 302.301 60.3 302.301 61.932C302.301 63.6864 302.954 65.1144 304.259 66.216C305.606 67.3176 307.299 67.8684 309.339 67.8684C311.705 67.8684 313.766 67.338 315.52 66.2772C317.274 65.1756 318.641 63.7476 319.62 61.9932C320.6 60.198 321.089 58.2396 321.089 56.118V48.0396C321.089 45.8772 320.314 44.1228 318.764 42.7764C317.213 41.43 315.194 40.7568 312.705 40.7568C310.665 40.7568 308.829 41.2668 307.197 42.2868C305.565 43.3068 304.32 44.6328 303.464 46.2648L300.159 44.49C300.771 43.1844 301.709 41.9808 302.974 40.8792C304.239 39.7776 305.708 38.9004 307.38 38.2476C309.053 37.5948 310.828 37.2684 312.705 37.2684C315.071 37.2684 317.152 37.7376 318.947 38.676C320.783 39.5736 322.211 40.8384 323.231 42.4704C324.251 44.0616 324.761 45.918 324.761 48.0396V70.5H321.089V63.7068L321.518 64.0128C320.987 65.3184 320.11 66.522 318.886 67.6236C317.662 68.6844 316.214 69.5616 314.541 70.2552C312.909 70.908 311.093 71.2344 309.094 71.2344Z" fill="#5A5954"></path>
</svg>